<?xml version="1.0" encoding="UTF-8" standalone="no"?>
<!-- Created with Inkscape (http://www.inkscape.org/) -->

<svg
   width="284.27902mm"
   height="270.97253mm"
   viewBox="0 0 284.27902 270.97253"
   version="1.1"
   id="svg1"
   sodipodi:docname="text1.svg"
   xmlns:inkscape="http://www.inkscape.org/namespaces/inkscape"
   xmlns:sodipodi="http://sodipodi.sourceforge.net/DTD/sodipodi-0.dtd"
   xmlns="http://www.w3.org/2000/svg"
   xmlns:svg="http://www.w3.org/2000/svg">
  <sodipodi:namedview
     id="namedview1"
     pagecolor="#ffffff"
     bordercolor="#000000"
     borderopacity="0.25"
     inkscape:showpageshadow="2"
     inkscape:pageopacity="0.0"
     inkscape:pagecheckerboard="0"
     inkscape:deskcolor="#d1d1d1"
     inkscape:document-units="mm"
     inkscape:zoom="0.6877385"
     inkscape:cx="396.22618"
     inkscape:cy="561.25984"
     inkscape:window-width="1920"
     inkscape:window-height="981"
     inkscape:window-x="0"
     inkscape:window-y="27"
     inkscape:window-maximized="1"
     inkscape:current-layer="layer1"
     showguides="false">
    <sodipodi:guide
       position="159.15131,47.392476"
       orientation="0,-1"
       id="guide1"
       inkscape:locked="false" />
    <inkscape:page
       x="0"
       y="0"
       width="284.27902"
       height="270.97253"
       id="page1"
       margin="0"
       bleed="0" />
  </sodipodi:namedview>
  <defs
     id="defs1" />
  <g
     inkscape:groupmode="layer"
     id="layer2"
     inkscape:label="Layer 2"
     style="display:inline"
     transform="translate(7.6477702,157.1344)">
    <g
       id="g10"
       inkscape:label="Amama"
       transform="matrix(0.32127113,0,0,0.32127113,-26.910343,-188.85639)"
       inkscape:export-filename="logo total.svg"
       inkscape:export-xdpi="96"
       inkscape:export-ydpi="96">
      <path
         style="display:none;fill:#ffffff"
         d="m 500.97647,304.16428 168.18495,59.04366 69.77887,75.14647 12.52441,207.54739 -73.35727,175.34176 -76.93567,30.41643 -191.44458,3.57841 -112.7197,-101.9845 3.5784,-284.48306 41.15164,-103.7737 85.88168,-59.04366 z"
         id="path1-2" />
      <path
         id="path11"
         style="display:inline;opacity:1;fill:#000000"
         d="m 293.42188,645.43555 c -2.01203,0.009 -4.22273,1.16698 -6.67188,3.70312 -42.09561,43.59088 -175.15876,70.52136 -152.36523,109.18555 7.30368,12.38909 22.63202,27.03806 35.37109,39.17187 25.46031,24.25063 52.47384,47.15685 81.63476,66.80274 22.43504,15.11461 46.40313,28.14256 71.22266,38.90234 27.10005,11.74842 55.30075,21.44991 84.16406,27.72266 33.45719,7.27112 59.56635,11.1953 102.09571,11.2539 0.78955,10e-4 1.56021,-0.0318 2.3125,-0.0996 0.75229,0.0679 1.52294,0.1007 2.3125,0.0996 42.52936,-0.0586 68.63851,-3.98278 102.0957,-11.2539 28.86331,-6.27275 57.06206,-15.97424 84.16211,-27.72266 24.81953,-10.75978 48.78763,-23.78773 71.22266,-38.90234 29.16092,-19.64589 56.1764,-42.55211 81.63671,-66.80274 12.73907,-12.13381 28.06742,-26.78278 35.3711,-39.17187 22.79353,-38.66419 -110.27158,-65.59467 -152.36719,-109.18555 -24.1147,-24.97127 -25.01004,83.83623 -42.6543,103.89649 -16.9667,19.28992 -34.92892,26.98189 -57.04882,47.7539 -20.53673,19.28532 -56.22933,19.44073 -85.15625,26.14258 -12.20777,2.82832 -28.33138,-1.8426 -39.57422,1.85938 -11.24285,-3.70199 -27.36841,0.96894 -39.57617,-1.85938 -28.92693,-6.70185 -64.61953,-6.85726 -85.15626,-26.14258 -22.11989,-20.77201 -40.08017,-28.46398 -57.04687,-47.7539 -15.85226,-18.02289 -18.18567,-107.68302 -35.98437,-107.59961 z" />
      <path
         id="path4-8"
         style="display:inline;opacity:1;fill:#dc7338;fill-opacity:1"
         d="m 342.80273,428.22656 -14.05078,13.6836 3.32813,68.41211 -8.50586,65.45507 9.24414,-5.17773 -10.35352,67.67383 c 0,0 7.47909,-5.97362 7.39649,-2.58985 -0.93784,38.43137 3.91256,109.77394 45.85351,128.69141 4.94534,2.23059 -5.86824,-19.70462 -0.36914,-16.27148 33.97033,21.20796 71.23794,149.21664 139.25563,149.14948 67.89264,-0.067 104.73499,-127.94152 138.70531,-149.14948 5.4991,-3.43314 -5.31448,18.50207 -0.36914,16.27148 41.94095,-18.91747 46.79331,-90.26004 45.85547,-128.69141 -0.0826,-3.38377 7.39453,2.58985 7.39453,2.58985 l -10.35352,-67.67383 9.24414,5.17773 -8.50585,-65.45507 3.33007,-68.41211 -14.05273,-13.6836 c 0,0 -6.71963,115.74976 -36.61133,129.80078 -13.90476,6.53613 -25.00098,87.06381 -26.99414,101.32422 -4.32571,30.94912 -67.95841,59.8659 -93.92969,65.08399 -5.72302,1.14986 -10.33481,6.81547 -13.98828,15.4707 -3.65346,-8.65523 -8.26525,-14.32084 -13.98828,-15.4707 -25.97128,-5.21809 -89.60398,-34.13487 -93.92969,-65.08399 -1.99316,-14.26041 -13.08938,-94.78809 -26.99414,-101.32422 -29.8917,-14.05102 -36.61133,-129.80078 -36.61133,-129.80078 z"
         sodipodi:nodetypes="cccccccssasssccccccssscsssc" />
      <path
         id="path5-9"
         style="display:inline;opacity:1;fill:#000000"
         d="m 494.64258,98.75 c -3.75104,-0.08157 -7.63599,0.308633 -11.06836,0.554688 -38.28371,2.744382 -75.84107,17.315322 -109.37891,35.980472 -33.92075,18.87825 -65.01196,44.50215 -89.23242,74.83984 -23.56365,29.51499 -44.04207,63.81208 -51.77539,100.7793 -8.7085,41.62884 -2.93252,86.22274 7.92383,127.34375 8.73758,33.09565 33.76831,60.82106 45.04492,92.2832 8.98361,25.06461 -23.72028,45.78055 -29.97656,78.25586 -7.32583,38.02715 -16.41204,67.04689 6.57422,81.99805 12.11738,7.88162 37.73925,2.64674 40.91992,-14.35547 9.24323,-49.40954 -6.15378,-118.51449 6.50195,-175.75781 5.60551,-25.35438 9.47911,-41.70225 29.60742,-66.70313 11.25992,-13.98567 -2.68275,-44.39878 8.59375,-58.37109 35.73762,-44.28124 83.61289,-62.39953 159.66407,-60.41016 2.33145,0.061 4.55867,-0.0539 6.68359,-0.33594 0.58322,0.20459 1.17098,0.39618 1.76172,0.57617 59.88442,18.24609 65.03571,13.31321 99.07031,34.23829 18.06283,11.10535 27.44752,15.41679 55.36524,31.32421 7.17325,4.0873 9.53773,13.87344 11.65429,21.85352 2.1797,8.21814 -1.63266,17.32824 0.72852,25.49609 6.32608,21.88336 33.453,26.52266 38.60937,54.63672 5.23126,28.52236 4.5459,58.24068 5.82813,87.41602 1.00241,22.80856 2.77328,45.68396 1.45703,68.47656 -1.1305,19.57604 -7.51414,44.63549 -8.01367,58.27734 -0.71224,19.45075 43.21096,8.67989 58.27734,-3.64257 7.97897,-6.52587 7.27888,-19.58556 8.01367,-29.86719 0.87169,-12.19717 -0.63817,-24.77925 -4.37109,-36.42383 -3.54957,-11.07264 -11.27553,-20.33948 -16.75391,-30.5957 -6.1917,-11.59165 -15.28772,-22.15482 -18.21289,-34.9668 -1.73043,-7.57911 -5.13535,-18.2064 0.72852,-23.31055 19.45527,-16.93464 41.56387,-31.11343 53.9082,-62.64843 5.15507,-13.16923 9.45168,-26.82526 11.6543,-40.79493 4.38964,-27.84033 4.94385,-56.39087 2.91406,-84.50195 -1.27948,-17.71985 -3.39734,-35.75357 -9.4707,-52.44922 -6.69248,-18.3976 -16.57722,-35.97848 -29.13867,-50.99414 -31.08052,-37.15276 -70.59272,-67.23275 -111.45508,-93.24414 -27.58385,-17.55881 -57.52912,-32.21007 -88.87305,-41.52344 -23.49803,-6.98208 -52.49904,-12.03126 -73.5,-11.15234 -2.89544,-1.646271 -6.51264,-2.199682 -10.26367,-2.28125 z m 8.93359,16.71289 c 2.8922,0.0509 5.7776,0.21505 8.65235,0.5332 6.48991,0.71826 24.98472,2.33601 18.9707,4.87891 C 446.87309,156.53049 357.54829,200.10369 303,221.15234 c -5.93822,2.29139 6.53883,-11.02861 10.8418,-15.71875 12.66798,-13.80781 28.4488,-24.43115 43.36328,-35.77539 12.28779,-9.34633 24.45311,-19.05146 37.94336,-26.55859 14.42859,-8.0293 29.70747,-14.79541 45.53125,-19.51367 11.95592,-3.56496 24.44739,-5.22364 36.85742,-6.50586 8.63094,-0.89176 17.36245,-1.76993 26.03906,-1.61719 z M 565.125,135.0957 c 10.10766,0.22957 20.26464,2.24642 30.03516,4.75 16.86979,4.32269 33.35185,11.02595 48.24218,20.05664 12.28354,7.44973 38.91087,14.52191 33.06446,27.64454 -3.11959,7.00212 -15.13704,-2.50145 -22.76563,-3.25391 -13.14565,-1.29664 -26.36408,-2.53724 -39.56836,-2.16797 -17.99039,0.50312 -35.98416,2.58688 -53.66211,5.96289 -31.64448,6.04323 -62.61095,15.46561 -93.23242,25.47656 -18.75381,6.1311 -37.06305,13.57696 -55.28711,21.13867 -21.21469,8.80261 -42.3858,17.8115 -62.87695,28.1875 -19.27384,9.75961 -38.45331,19.91343 -56.37305,31.98047 -12.80298,8.62145 -21.72909,33.77199 -36.3164,28.72657 -4.3901,-1.51843 -3.82037,-8.94042 -3.25196,-13.55078 1.72065,-13.95608 10.59659,-26.52756 19.51367,-37.4004 11.32681,-13.8111 26.72176,-23.93241 41.73633,-33.60742 41.50089,-26.74213 86.73321,-47.56556 132.25781,-66.66992 35.19427,-14.76924 70.47139,-32.66847 108.40821,-36.85937 3.34173,-0.36917 6.70695,-0.49059 10.07617,-0.41407 z m 59.30664,63.83399 c 18.69748,0.0573 37.67538,0.94712 55.83008,5.41992 11.17422,2.75301 21.49588,8.26276 31.98047,13.00781 7.36146,3.33161 16.25974,4.85067 21.68164,10.8418 2.72447,3.01051 8.34644,10.74891 4.33594,11.38281 -17.94281,2.83606 -41.6136,-10.14094 -62.87696,-11.38281 -26.02438,-1.51993 -52.27205,1.02739 -78.05469,4.8789 -20.02445,2.99135 -39.6447,8.42455 -59.08203,14.0918 -33.40717,9.74036 -66.64512,20.48913 -98.65039,34.14844 -22.59359,9.64256 -44.56228,20.90415 -65.58789,33.60742 -18.53496,11.19847 -36.68056,23.30346 -53.11914,37.40039 -10.28205,8.81739 -19.95282,18.5171 -28.1875,29.27149 -10.24797,13.38373 -9.16847,42.85881 -26.01758,43.36132 -4.15772,0.124 -5.71349,-6.3568 -7.04687,-10.29687 -4.40787,-13.02507 -4.90113,-27.71897 -2.16797,-41.19531 2.95535,-14.5719 10.73105,-28.11383 19.51367,-40.11133 8.83241,-12.06551 20.25441,-22.34905 32.52344,-30.89649 30.89632,-21.52448 66.72637,-35.09202 101.36133,-49.86718 30.59791,-13.05297 61.78822,-25.00752 93.77343,-34.14844 23.61195,-6.74795 47.805,-11.53033 72.08985,-15.17774 15.78835,-2.37128 31.73582,-4.38482 47.70117,-4.33593 z m 15.72266,57.78515 c 12.68288,-0.4545 25.41414,-0.6417 38.07226,0.27149 17.88826,1.29051 35.97084,2.72352 53.30078,7.34179 9.35255,2.49238 18.30621,6.46841 26.92188,10.87891 6.96226,3.56409 14.36906,6.93334 19.85351,12.50977 6.24629,6.35104 10.89093,14.44644 13.86915,22.84179 4.46604,12.58948 4.79336,26.36244 5.4375,39.70508 0.55115,11.41731 9.54542,30.83669 -1.35938,34.26367 -6.72808,2.11439 -8.22207,-11.47871 -12.78125,-16.85937 -5.88636,-6.94698 -11.89957,-13.86877 -18.76367,-19.85156 -8.8175,-7.68539 -18.36793,-14.64814 -28.55469,-20.39649 -13.15459,-7.42308 -27.26578,-13.20971 -41.60742,-17.94922 -12.02513,-3.97397 -24.53838,-6.35736 -36.98438,-8.70117 -17.72552,-3.33804 -35.69285,-5.2355 -53.57226,-7.61523 -12.4046,-1.65104 -24.7657,-3.85107 -37.25586,-4.62305 -25.42352,-1.57135 -65.75366,2.81101 -76.41602,0 -17.40057,-4.58746 32.96538,-14.78035 50.3086,-19.58008 15.59782,-4.31669 31.80304,-6.15959 47.86328,-8.1582 17.14443,-2.13353 34.40238,-3.4594 51.66797,-4.07813 z m -60.09961,52.48438 c 22.58066,0.005 48.65683,3.74748 72.60937,8.1582 11.78419,2.16999 23.61028,4.71157 34.8086,8.97461 13.14749,5.00506 25.57496,11.89233 37.52929,19.30859 9.47483,5.87804 18.83277,12.1776 26.92188,19.85157 10.04539,9.52984 19.29181,20.19443 26.3789,32.08984 5.66053,9.50098 10.78896,19.80351 12.50782,30.72852 0.94656,6.01628 3.44885,14.48271 -1.35938,18.2207 -1.23541,0.96043 -3.35006,0.0936 -4.62305,-0.81641 -4.88481,-3.49212 -5.36312,-10.78011 -8.70117,-15.77148 -2.90398,-4.34231 -6.25484,-8.39326 -9.79101,-12.23828 C 759.91196,410.72003 753.18851,403.91292 745.66797,398.125 727.76574,384.34719 707.77652,373.44999 688.01758,362.5 652.91362,343.04611 540.47711,309.19122 580.05469,309.19922 Z" />
    </g>
  </g>
  <g
     inkscape:label="Layer 1"
     inkscape:groupmode="layer"
     id="layer1"
     transform="translate(30.391971,72.739577)">
    <path
       style="font-size:101.326px;font-family:KacstDecorative;-inkscape-font-specification:'KacstDecorative, Normal';letter-spacing:0px;display:inline;fill:#55d400;fill-opacity:1;stroke-width:0.527739"
       d="m 233.03755,144.67009 c 0,-3.99103 1.99552,-5.98655 5.98655,-5.98655 1.51725,0 2.90256,0.57722 4.15594,1.73165 1.2204,1.12145 1.8306,2.53975 1.8306,4.2549 0,1.58322 -0.6102,2.96854 -1.8306,4.15595 -1.18741,1.18741 -2.57272,1.78112 -4.15594,1.78112 -1.71515,0 -3.13345,-0.59371 -4.2549,-1.78112 -1.15443,-1.25338 -1.73165,-2.6387 -1.73165,-4.15595 z m -8.26242,-30.32203 h 11.132 V 85.50379 h 11.47834 v 28.44846 c 0,9.86213 -3.85909,14.80969 -11.57729,14.84268 h -11.03305 z m -27.45896,29.7843 c -2.24289,-1.15443 -4.0405,-0.26387 -5.39284,2.67168 -1.28636,3.69417 -2.50676,3.11696 -3.66119,-1.73165 -0.26387,-2.30886 0.31334,-4.74965 1.73164,-7.32238 1.2204,-2.40781 3.61172,-2.90257 7.17396,-1.48427 3.56225,1.4183 5.4918,1.58322 5.78865,0.49476 V 93.667262 c 0,-0.923545 0.24738,-2.259386 0.74213,-4.007523 0.52774,-1.814105 2.19342,-3.397323 4.99703,-4.749656 4.02402,-1.121447 6.95958,-0.412297 8.80666,2.12745 0.8246,1.4183 1.4183,2.473779 1.78112,3.166438 0.39581,0.692658 0.56073,1.006003 0.49476,0.940036 -3.19942,-1.220398 -5.0795,-1.088463 -5.64022,0.395804 v 22.808249 h 10.9341 v 14.24896 h -10.9341 v 7.7182 c 0.26387,3.43031 -0.37931,6.08549 -1.92955,7.96556 -1.55023,1.91306 -3.87558,2.93556 -6.97606,3.06749 -3.16643,0.16492 -5.80513,-0.90705 -7.91609,-3.21591 z m -34.58071,19.05856 c 0,-3.99103 1.99552,-5.98655 5.98654,-5.98655 1.51726,0 2.90257,0.57722 4.15595,1.73165 1.2204,1.12145 1.8306,2.53975 1.8306,4.2549 0,1.58322 -0.6102,2.96854 -1.8306,4.15595 -1.18741,1.18741 -2.57273,1.78112 -4.15595,1.78112 -1.71515,0 -3.13345,-0.59371 -4.2549,-1.78112 -1.15442,-1.25338 -1.73164,-2.6387 -1.73164,-4.15595 z m -5.46216,-30.32203 h 11.13201 v -28.84427 h 11.47833 v 28.44846 c 0,9.86213 -3.85909,14.80969 -11.57728,14.84268 H 157.2733 Z m -27.45894,29.7843 c -2.24289,-1.15443 -4.0405,-0.26387 -5.39284,2.67168 -1.28636,3.69417 -2.50676,3.11696 -3.66119,-1.73165 -0.26387,-2.30886 0.31334,-4.74965 1.73164,-7.32238 1.2204,-2.40781 3.61172,-2.90257 7.17396,-1.48427 3.56225,1.4183 5.4918,1.58322 5.78865,0.49476 V 112.1881 c 0,-0.92355 0.24738,-2.25939 0.74213,-4.00753 0.52774,-1.8141 2.19342,-3.39732 4.99703,-4.74965 4.02402,-1.12145 6.95958,-0.4123 8.80666,2.12745 0.8246,1.4183 1.4183,2.47378 1.78112,3.16643 0.39581,0.69266 0.56073,1.00601 0.49476,0.94004 -3.19942,-1.2204 -5.0795,-1.08846 -5.64022,0.3958 v 22.80825 h 10.9341 v 14.24896 h -10.9341 v 7.7182 c 0.26387,3.43031 -0.37931,6.08549 -1.92955,7.96556 -1.55023,1.91306 -3.87558,2.93556 -6.97606,3.06749 -3.16643,0.16492 -5.80513,-0.90705 -7.91609,-3.21591 z M 93.400478,147.26628 h -8.410849 c -5.838119,-0.13193 -10.703218,-2.19342 -14.595297,-6.18445 -3.991031,-4.18893 -5.986546,-9.12 -5.986546,-14.7932 -0.197902,-3.59523 0.280362,-7.60275 1.434792,-12.02256 1.187414,-4.28788 3.067486,-7.40485 5.640217,-9.35089 2.04499,-1.55023 3.034502,-1.92954 2.968535,-1.13793 -0.06597,0.75862 0.03298,1.58321 0.296853,2.47378 0.26387,0.85757 0.874069,1.18741 1.830597,0.98951 2.770632,-1.28637 5.706184,-1.92955 8.806654,-1.92955 5.739167,0 10.637249,2.06148 14.694246,6.18445 3.69418,3.99103 5.8876,8.98806 6.58026,14.9911 v 25.5294 c 0,4.15595 -1.20391,7.78416 -3.61172,10.88463 -2.37483,3.16643 -5.508287,5.063 -9.400364,5.68969 -4.024014,0.65967 -7.454321,0.52774 -10.290921,-0.39581 -3.001519,-0.92354 -5.772152,-3.13345 -8.311898,-6.62973 -1.550236,-1.97902 -3.545751,-1.97902 -5.986546,0 -2.803617,2.70467 -3.644702,1.64919 -2.523255,-3.16643 1.022495,-2.07797 2.605714,-3.99103 4.749656,-5.73917 2.176926,-1.64919 5.260904,-0.57722 9.251935,3.21591 2.012006,1.71515 4.601228,2.35834 7.767666,1.92955 3.331356,-0.39581 5.030017,-2.35834 5.095985,-5.88759 z m -7.916093,-13.90264 c 2.04499,0 3.776636,-0.70915 5.194936,-2.12745 1.451284,-1.45128 2.176926,-3.19942 2.176926,-5.24441 0,-2.01201 -0.725642,-3.74365 -2.176926,-5.19494 -1.451284,-1.48427 -3.182929,-2.2264 -5.194936,-2.2264 -2.110958,0 -3.875587,0.74213 -5.293887,2.2264 -1.418301,1.4183 -2.127451,3.14995 -2.127451,5.19494 0,2.07797 0.70915,3.82611 2.127451,5.24441 1.4183,1.4183 3.182929,2.12745 5.293887,2.12745 z m -32.06446,-19.21349 c 0.131935,9.66423 -4.007522,14.52933 -12.418371,14.5953 H 13.691031 c -0.296853,5.17845 -2.259385,9.48282 -5.8875945,12.91313 -3.5952257,3.43031 -7.9160934,4.91457 -12.962603,4.4528 -3.8590957,-0.39581 -6.9430735,-1.50076 -9.2519345,-3.31486 -2.275877,-1.78112 -4.024014,-3.67769 -5.244412,-5.6897 -1.220397,-2.01201 -2.012007,-3.82611 -2.374828,-5.44231 -0.362821,-1.58322 -0.593707,-5.98655 -0.692658,-13.20998 -0.09895,-7.25642 0.148427,-11.74221 0.742134,-13.45736 0.593707,-1.74814 2.226401,-3.41382 4.898083,-4.99703 4.2549,-1.022498 7.2399268,-0.181415 8.9550804,2.52325 1.7481373,2.67168 2.5727304,3.97454 2.4737792,3.90857 -3.1994211,-0.95653 -4.9640506,-0.84108 -5.2938876,0.34633 -0.329837,1.18741 -0.494756,7.93259 -0.494756,20.23552 0.131935,1.4183 0.511248,2.6222 1.137939,3.61171 1.1874139,1.88007 3.067486,2.95205 5.6402163,3.21592 0.956528,0.16491 2.1934176,-0.18142 3.71066884,-1.03899 1.55023497,-0.85758 2.68817346,-2.20991 3.41381536,-4.057 V 111.6269 94.508347 c 0,-0.857577 0.230886,-2.193418 0.6926581,-4.007523 0.4947559,-1.814105 2.1934176,-3.380831 5.0959852,-4.70018 4.0240142,-1.220398 6.9100902,-0.494756 8.6582272,2.176925 1.748137,2.671682 2.57273,4.007523 2.473779,4.007523 -3.166437,-0.956528 -5.063001,-0.296854 -5.689692,1.979023 v 10.043545 10.14249 h 9.30141 V 85.454315 h 10.835153 v 28.695835 h 8.658227 c 0,-19.130557 3.644701,-28.695835 10.934104,-28.695835 z"
       id="text1"
       aria-label="بربروس"
       sodipodi:nodetypes="sscscscsccccscccccccscsccccccccccccccsscscscsccccscccccccscscccccccccccccccccccccccsccscccccccccccssscscsssccccccsccccccsccccccsccsccccccccccc"
       inkscape:export-filename="text1.svg"
       inkscape:export-xdpi="96"
       inkscape:export-ydpi="96"
       inkscape:label="barbarous" />
    <g
       id="g1"
       transform="matrix(1.4180018,0,0,1.4180018,7.7941538,-59.857497)"
       inkscape:export-filename="text1.png"
       inkscape:export-xdpi="96"
       inkscape:export-ydpi="96">
      <g
         id="g2"
         inkscape:label="sword">
        <path
           style="display:inline;opacity:1;fill:#381e0a;fill-opacity:1;stroke-width:0.264583"
           d="m -14.846062,157.8546 c -0.732748,0.0922 -0.414053,1.56965 -0.449206,2.37438 -0.04691,1.07384 0.510457,2.15059 0.320861,3.20861 -0.180557,1.00758 -0.651999,2.00845 -1.347618,2.75941 -0.775345,0.83702 -1.846005,1.4521 -2.951926,1.73265 -1.224008,0.31051 -2.618229,0.3518 -3.786165,-0.12834 -1.428026,-0.58708 -2.689241,-1.77436 -3.401131,-3.14445 -0.517485,-0.99593 -0.488302,-2.21528 -0.449207,-3.33696 0.04793,-1.37517 0.15828,-2.84432 0.83424,-4.04285 0.974088,-1.72714 2.624005,-3.0914 4.363716,-4.04285 1.046947,-0.57258 2.286676,-0.71193 3.465304,-0.89842 1.756798,-0.27796 3.547649,-0.31917 5.326301,-0.32086 2.571254,-0.002 5.1527043,0.10396 7.7006753,0.44921 2.124469,0.28786 4.167894,1.03514 6.288884,1.34762 1.040405,0.15327 2.093245,0.22638 3.144443,0.25669 1.796587,0.0518 3.999076,-1.26608 5.390472,-0.12835 0.9906157,0.81002 -0.136149,2.78787 0.6726287,3.77949 0.662295,0.81202 2.97039,0.11508 2.921022,1.16178 -0.101362,2.14897 -4.0472147,1.68684 -6.1950387,1.81017 -1.418331,0.0814 -2.805197,-0.45394 -4.200874,-0.71924 -2.36158401,-0.44891 -4.675021,-1.16701 -7.058953,-1.47597 -3.299951,-0.42766 -6.5834713,-0.68975 -9.9693383,-0.51524 -0.210347,0.0108 0.09709,-0.21658 -0.61909,-0.12648 z"
           id="path4"
           sodipodi:nodetypes="saaaaaaaaaaaaaaaaaaaass"
           inkscape:export-filename="path4.svg"
           inkscape:export-xdpi="96"
           inkscape:export-ydpi="96" />
        <g
           id="g3"
           style="display:inline;fill:#aba2a2;fill-opacity:1"
           transform="matrix(0.26458333,0,0,0.26458333,-30.054896,139.37298)">
          <path
             style="display:inline;opacity:1;fill:#aba2a2;fill-opacity:1"
             d="m 126.18115,67.683533 c 11.46044,-25.860022 56.75694,-1.297961 84.82948,2.168263 23.51552,2.903551 46.11646,10.957981 69.36672,15.522621 25.63532,5.03289 51.34435,9.904018 77.27626,13.071942 20.31224,2.481411 40.80028,3.219701 61.21463,4.633551 15.43525,1.06901 30.85314,2.87669 46.32532,2.91049 12.47165,0.0273 24.89496,-1.56472 37.35131,-2.18287 7.91985,-0.39302 15.91498,0.12198 23.76901,-0.97016 10.2938,-1.43141 20.30549,-4.489038 30.31762,-7.276232 3.13819,-0.873615 7.98127,0.01466 9.31425,-2.957646 0.95016,-2.118654 -4.07781,-6.143992 -2.84146,-6.359991 10.93164,-1.909825 30.19804,-6.760665 45.34895,-9.896963 25.6887,-5.317665 50.22843,-10.76452 75.02718,-17.409085 23.59179,-6.321172 46.66897,-14.43119 70.09434,-21.343604 5.0806,-1.499195 9.49433,-4.114848 15.28008,-4.365738 3.06348,-0.132843 -5.13777,10.134286 -8.72795,14.477477 -3.87819,4.691608 -8.68056,8.597864 -13.58582,12.202029 -6.89403,5.065429 -14.51589,9.084341 -22.07123,13.097211 -7.02672,3.732106 -14.2644,7.072963 -21.58614,10.186721 -12.97485,5.517887 -26.17198,10.54146 -39.5377,15.0305 -18.28583,6.141521 -36.82414,11.580961 -55.53836,16.257281 -22.35131,5.58515 -44.93071,10.35949 -67.66893,14.06738 -11.49075,1.87378 -23.07677,3.20906 -34.68335,4.12319 -14.5185,1.14347 -29.09392,1.69349 -43.65738,1.69779 -19.01297,0.006 -38.03647,-0.77332 -56.99712,-2.18287 -16.87211,-1.25429 -33.64318,-3.62346 -50.44852,-5.57844 -13.9151,-1.61876 -27.8712,-2.96191 -41.71704,-5.09336 -36.24982,-5.58036 -72.18107,-13.07743 -108.17327,-20.1309 -13.77032,-2.698597 -27.77087,-4.526205 -41.23196,-8.488933 -7.06712,-2.080448 -14.48396,-3.889185 -20.60894,-7.982734 -6.59933,-4.410579 -19.65601,-9.970089 -16.43998,-17.22692 z"
             id="path5"
             sodipodi:nodetypes="aaaaaaaaaassaasaaaaaaaaaaaaaaaa" />
          <path
             id="path2"
             style="display:none;fill:#aba2a2;fill-opacity:1"
             inkscape:transform-center-x="8.2867999"
             inkscape:transform-center-y="-7.8434929"
             d="m 177.12461,-113.26055 c -3.00913,0.46286 -4.86095,3.06412 -4.46817,5.62325 0.23622,1.53708 -0.25338,13.131366 1.37534,13.763692 l -6.81555,25.816577 -29.44962,6.578878 28.16052,7.862908 6.17479,23.324586 c -2.19533,0.950206 -3.46538,6.270383 -3.15162,8.30544 0.31777,2.062771 0.13014,4.528491 6.27525,1.851733 0,0 3.76746,-2.709192 3.37455,-5.268331 -0.28063,-1.826948 0.63655,-5.016431 -1.43887,-5.461672 l 7.15574,-21.752016 25.30481,-8.872524 -23.01852,-6.792661 -5.49652,-26.260063 c 0.12116,-0.01206 -2.6056,0.603708 -2.48524,0.584834 3.00983,-0.462963 3.15546,-9.372471 2.7616,-11.932051 -0.39445,-2.55888 -1.24947,-7.83543 -4.25861,-7.37258 z"
             transform="matrix(0.98837608,0.19307168,-0.15202868,1.2552068,-42.843006,115.64655)"
             sodipodi:nodetypes="sccccccccccccccccss" />
        </g>
        <path
           sodipodi:type="star"
           style="fill:#967f45;fill-opacity:1"
           id="path6"
           inkscape:flatsided="false"
           sodipodi:sides="4"
           sodipodi:cx="68.534592"
           sodipodi:cy="111.34669"
           sodipodi:r1="20.837137"
           sodipodi:r2="4.3369823"
           sodipodi:arg1="0.3270981"
           sodipodi:arg2="1.1124963"
           inkscape:rounded="0"
           inkscape:randomized="0"
           d="m 88.266917,118.04158 -17.813539,-2.80546 -8.613682,15.84289 2.805464,-17.81354 -15.842893,-8.61368 17.813539,2.80547 8.613682,-15.842898 -2.805465,17.813538 z"
           transform="matrix(0.79283998,-0.09570564,0.099105,0.76564513,-58.321591,79.698873)" />
      </g>
      <ellipse
         style="fill:#967f45;fill-opacity:1;stroke-width:0.264583"
         id="path7"
         cx="29.693451"
         cy="143.12291"
         rx="1.2585964"
         ry="3.5893307"
         transform="rotate(7.8579262)" />
      <ellipse
         style="fill:#967f45;fill-opacity:1;stroke-width:0.264583"
         id="path7-1"
         cx="27.686512"
         cy="168.21461"
         rx="1.2585964"
         ry="3.5893307"
         transform="rotate(7.8579262)"
         inkscape:transform-center-x="-8.8090739"
         inkscape:transform-center-y="-44.750095" />
    </g>
  </g>
</svg>
