<?xml version="1.0" encoding="UTF-8" standalone="no"?>
<svg
   width="1024"
   height="1024"
   viewBox="0 0 1024 1024"
   version="1.1"
   id="svg237"
   sodipodi:docname="logo_main.svg"
   inkscape:version="1.4.3 (0d15f75042, 2025-12-25)"
   xmlns:inkscape="http://www.inkscape.org/namespaces/inkscape"
   xmlns:sodipodi="http://sodipodi.sourceforge.net/DTD/sodipodi-0.dtd"
   xmlns="http://www.w3.org/2000/svg"
   xmlns:svg="http://www.w3.org/2000/svg">
  <sodipodi:namedview
     id="namedview237"
     pagecolor="#ffffff"
     bordercolor="#000000"
     borderopacity="0.25"
     inkscape:showpageshadow="2"
     inkscape:pageopacity="0.0"
     inkscape:pagecheckerboard="0"
     inkscape:deskcolor="#d1d1d1"
     inkscape:zoom="0.55890849"
     inkscape:cx="322.9509"
     inkscape:cy="418.67319"
     inkscape:window-width="1920"
     inkscape:window-height="981"
     inkscape:window-x="0"
     inkscape:window-y="27"
     inkscape:window-maximized="1"
     inkscape:current-layer="svg237" />
  <defs
     id="defs2">
    <linearGradient
       id="gradient_0"
       gradientUnits="userSpaceOnUse"
       x1="345.58813"
       y1="1068.8328"
       x2="653.42664"
       y2="483.24435">
      <stop
         offset="0"
         stop-color="#1E1812"
         id="stop1" />
      <stop
         offset="1"
         stop-color="#4C4031"
         id="stop2" />
    </linearGradient>
  </defs>
  <defs
     id="defs34">
    <linearGradient
       id="gradient_1"
       gradientUnits="userSpaceOnUse"
       x1="-52.651169"
       y1="147.33025"
       x2="247.02734"
       y2="258.60992">
      <stop
         offset="0"
         stop-color="#393024"
         id="stop33" />
      <stop
         offset="1"
         stop-color="#8D7B65"
         id="stop34" />
    </linearGradient>
  </defs>
  <defs
     id="defs44">
    <linearGradient
       id="gradient_2"
       gradientUnits="userSpaceOnUse"
       x1="911.86029"
       y1="39.505917"
       x2="976.19983"
       y2="23.231817">
      <stop
         offset="0"
         stop-color="#74573A"
         id="stop43" />
      <stop
         offset="1"
         stop-color="#D89C6E"
         id="stop44" />
    </linearGradient>
  </defs>
  <defs
     id="defs59">
    <linearGradient
       id="gradient_3"
       gradientUnits="userSpaceOnUse"
       x1="947.41986"
       y1="163.05528"
       x2="930.17908"
       y2="199.92615">
      <stop
         offset="0"
         stop-color="#916442"
         id="stop58" />
      <stop
         offset="1"
         stop-color="#C1956B"
         id="stop59" />
    </linearGradient>
  </defs>
  <defs
     id="defs82">
    <linearGradient
       id="gradient_4"
       gradientUnits="userSpaceOnUse"
       x1="1012.2628"
       y1="276.94653"
       x2="1016.8979"
       y2="269.49072">
      <stop
         offset="0"
         stop-color="#B1845D"
         id="stop81" />
      <stop
         offset="1"
         stop-color="#CFA47A"
         id="stop82" />
    </linearGradient>
  </defs>
  <defs
     id="defs88">
    <linearGradient
       id="gradient_5"
       gradientUnits="userSpaceOnUse"
       x1="934.98761"
       y1="194.28935"
       x2="923.11658"
       y2="216.81932">
      <stop
         offset="0"
         stop-color="#C59870"
         id="stop87" />
      <stop
         offset="1"
         stop-color="#E7C8A6"
         id="stop88" />
    </linearGradient>
  </defs>
  <defs
     id="defs105">
    <linearGradient
       id="gradient_6"
       gradientUnits="userSpaceOnUse"
       x1="1011.8508"
       y1="205.06194"
       x2="995.48413"
       y2="218.49989">
      <stop
         offset="0"
         stop-color="#B68861"
         id="stop104" />
      <stop
         offset="1"
         stop-color="#D3AE87"
         id="stop105" />
    </linearGradient>
  </defs>
  <defs
     id="defs112">
    <linearGradient
       id="gradient_7"
       gradientUnits="userSpaceOnUse"
       x1="988.21381"
       y1="183.399"
       x2="997.28619"
       y2="163.101">
      <stop
         offset="0"
         stop-color="#391F17"
         id="stop111" />
      <stop
         offset="1"
         stop-color="#81532C"
         id="stop112" />
    </linearGradient>
  </defs>
  <defs
     id="defs114">
    <linearGradient
       id="gradient_8"
       gradientUnits="userSpaceOnUse"
       x1="945.21149"
       y1="121.96719"
       x2="938.13733"
       y2="142.98192">
      <stop
         offset="0"
         stop-color="#835233"
         id="stop113" />
      <stop
         offset="1"
         stop-color="#A17952"
         id="stop114" />
    </linearGradient>
  </defs>
  <defs
     id="defs116">
    <linearGradient
       id="gradient_9"
       gradientUnits="userSpaceOnUse"
       x1="994.76105"
       y1="178.75342"
       x2="999.53589"
       y2="193.1595">
      <stop
         offset="0"
         stop-color="#90623F"
         id="stop115" />
      <stop
         offset="1"
         stop-color="#B4845A"
         id="stop116" />
    </linearGradient>
  </defs>
  <defs
     id="defs118">
    <linearGradient
       id="gradient_10"
       gradientUnits="userSpaceOnUse"
       x1="919.85571"
       y1="116.95111"
       x2="924.28735"
       y2="135.13588">
      <stop
         offset="0"
         stop-color="#9E724F"
         id="stop117" />
      <stop
         offset="1"
         stop-color="#CEA27A"
         id="stop118" />
    </linearGradient>
  </defs>
  <defs
     id="defs120">
    <linearGradient
       id="gradient_11"
       gradientUnits="userSpaceOnUse"
       x1="990.15973"
       y1="188.40215"
       x2="984.12866"
       y2="196.1554">
      <stop
         offset="0"
         stop-color="#C59B74"
         id="stop119" />
      <stop
         offset="1"
         stop-color="#DDBB95"
         id="stop120" />
    </linearGradient>
  </defs>
  <defs
     id="defs122">
    <linearGradient
       id="gradient_12"
       gradientUnits="userSpaceOnUse"
       x1="913.39166"
       y1="149.87845"
       x2="881.03754"
       y2="164.32283">
      <stop
         offset="0"
         stop-color="#C99F76"
         id="stop121" />
      <stop
         offset="1"
         stop-color="#EED2B1"
         id="stop122" />
    </linearGradient>
  </defs>
  <defs
     id="defs128">
    <linearGradient
       id="gradient_13"
       gradientUnits="userSpaceOnUse"
       x1="902.62012"
       y1="124.43665"
       x2="921.5379"
       y2="110.35039">
      <stop
         offset="0"
         stop-color="#372011"
         id="stop127" />
      <stop
         offset="1"
         stop-color="#684228"
         id="stop128" />
    </linearGradient>
  </defs>
  <defs
     id="defs130">
    <linearGradient
       id="gradient_14"
       gradientUnits="userSpaceOnUse"
       x1="913.6134"
       y1="112.16113"
       x2="913.24677"
       y2="118.1077">
      <stop
         offset="0"
         stop-color="#734C30"
         id="stop129" />
      <stop
         offset="1"
         stop-color="#8C6243"
         id="stop130" />
    </linearGradient>
  </defs>
  <defs
     id="defs132">
    <linearGradient
       id="gradient_15"
       gradientUnits="userSpaceOnUse"
       x1="973.34863"
       y1="199.46707"
       x2="962.55707"
       y2="209.65012">
      <stop
         offset="0"
         stop-color="#784C2F"
         id="stop131" />
      <stop
         offset="1"
         stop-color="#A87951"
         id="stop132" />
    </linearGradient>
  </defs>
  <defs
     id="defs138">
    <linearGradient
       id="gradient_16"
       gradientUnits="userSpaceOnUse"
       x1="768.18164"
       y1="1.1930842"
       x2="769.13983"
       y2="81.368805">
      <stop
         offset="0"
         stop-color="#805233"
         id="stop137" />
      <stop
         offset="1"
         stop-color="#A37955"
         id="stop138" />
    </linearGradient>
  </defs>
  <defs
     id="defs142">
    <linearGradient
       id="gradient_17"
       gradientUnits="userSpaceOnUse"
       x1="740.3476"
       y1="11.216591"
       x2="730.99634"
       y2="12.603086">
      <stop
         offset="0"
         stop-color="#8D6341"
         id="stop141" />
      <stop
         offset="1"
         stop-color="#A77E57"
         id="stop142" />
    </linearGradient>
  </defs>
  <defs
     id="defs144">
    <linearGradient
       id="gradient_18"
       gradientUnits="userSpaceOnUse"
       x1="839.2984"
       y1="19.106178"
       x2="820.58081"
       y2="40.769634">
      <stop
         offset="0"
         stop-color="#B48359"
         id="stop143" />
      <stop
         offset="1"
         stop-color="#DFBD97"
         id="stop144" />
    </linearGradient>
  </defs>
  <defs
     id="defs146">
    <linearGradient
       id="gradient_19"
       gradientUnits="userSpaceOnUse"
       x1="818.18427"
       y1="8.0340214"
       x2="850.45148"
       y2="26.877306">
      <stop
         offset="0"
         stop-color="#845837"
         id="stop145" />
      <stop
         offset="1"
         stop-color="#B8875E"
         id="stop146" />
    </linearGradient>
  </defs>
  <defs
     id="defs148">
    <linearGradient
       id="gradient_20"
       gradientUnits="userSpaceOnUse"
       x1="875.50537"
       y1="91.099083"
       x2="849.79797"
       y2="108.53429">
      <stop
         offset="0"
         stop-color="#CDA37A"
         id="stop147" />
      <stop
         offset="1"
         stop-color="#F2D9BA"
         id="stop148" />
    </linearGradient>
  </defs>
  <defs
     id="defs191">
    <linearGradient
       id="gradient_21"
       gradientUnits="userSpaceOnUse"
       x1="733.51831"
       y1="9.3003578"
       x2="704.3407"
       y2="42.010262">
      <stop
         offset="0"
         stop-color="#AB805A"
         id="stop190" />
      <stop
         offset="1"
         stop-color="#CFAC88"
         id="stop191" />
    </linearGradient>
  </defs>
  <defs
     id="defs194">
    <linearGradient
       id="gradient_22"
       gradientUnits="userSpaceOnUse"
       x1="1026.4373"
       y1="554.97095"
       x2="1006.2342"
       y2="566.56946">
      <stop
         offset="0"
         stop-color="#926E4B"
         id="stop193" />
      <stop
         offset="1"
         stop-color="#A98461"
         id="stop194" />
    </linearGradient>
  </defs>
  <defs
     id="defs205">
    <linearGradient
       id="gradient_23"
       gradientUnits="userSpaceOnUse"
       x1="1022.6876"
       y1="404.39487"
       x2="1008.17"
       y2="417.17053">
      <stop
         offset="0"
         stop-color="#3C2311"
         id="stop204" />
      <stop
         offset="1"
         stop-color="#765337"
         id="stop205" />
    </linearGradient>
  </defs>
  <path
     fill="#D63601"
     d="M485.204 11.2793C487.301 11.1668 489.4 11.0915 491.5 11.0534C619.346 8.55598 742.888 57.2576 834.639 146.323C924.233 232.508 976.018 350.688 978.652 474.978C980.909 595.383 935.087 711.722 851.328 798.247C765.895 886.428 649.357 937.692 526.625 941.082L525.497 941.117C395.03 945.035 273.873 896.099 179.39 806.947C90.3905 722.499 38.0233 606.54 33.5168 483.935C30.0953 362.718 74.967 245.106 158.261 156.974C243.518 66.8447 361.18 14.4115 485.204 11.2793Z"
     id="path228" />
  <path
     fill="#FEFDFA"
     d="M489.289 45.2239C579.788 42.7814 668.873 68.0404 744.622 117.62C842.564 181.669 911.229 281.823 935.663 396.269C954.912 488.87 942.51 585.253 900.445 669.965C893.8 683.407 886.46 696.494 878.456 709.174C873.696 716.622 868.419 723.842 863.565 731.282C846.489 723.716 829.471 716.02 812.512 708.195C801.975 703.399 790.802 698.663 780.46 693.565C790.708 662.93 787.395 629.378 771.353 601.339C767.244 594.057 762.144 587.455 758.13 580.032C750.802 566.478 748.387 555.789 747.72 540.7C789.146 507.964 808.459 478.456 814.746 425.56C821.813 368.601 821.545 301.738 783.463 254.684C723.975 181.18 624.535 116.379 530.109 103.484C513.911 101.427 497.559 100.858 481.257 101.783C405.623 106.666 339.33 149.516 289.968 205.154C271.807 226.047 254.752 250.503 244.463 276.276C213.961 352.683 233.49 444.731 277.792 511.736C280.483 515.806 288.2 524.946 288.556 529.164C289.908 544.549 285.134 565.016 276.015 577.717C258.473 602.15 249.258 630.748 250.736 660.969C251.205 670.558 254.011 681.37 256.557 691C235.013 700.577 213.575 710.388 192.245 720.433C182.422 724.997 170.83 729.808 161.383 734.779C105.727 667.027 70.9606 573.222 68.0751 485.799C64.8044 394.551 91.1633 304.696 143.209 229.676C223.522 114.402 349.678 49.7476 489.289 45.2239Z"
     id="path229" />
  <path
     fill="#fefdfa"
     d="m 476.84,314.223 c 53.755,-3.563 106.983,18.303 153.241,43.387 16.239,8.805 53.12,27.84 53.009,48.877 -0.243,46.073 -2.695,96.487 -26.042,137.441 -3.326,5.833 -8.168,11.355 -12.605,16.346 1.783,14.624 -2.192,20.03 -16.72,21.217 -24.527,2.005 -6.41337,90.9289 -25.65437,79.8179 -6.967,-4.024 -24.59661,15.49042 -32.85461,15.11442 -11.333,-1.039 -29.384,-4.01041 -38.661,2.84659 -11.42,-6.909 -3.22759,56.48527 -36.68281,12.27523 -5.83993,-7.7173 -14.4684,-15.59302 -23.2244,-11.25402 -4.768,2.363 -10.708,7.116 -15.178,10.465 -12.832,9.616 -22.84559,-21.67524 -39.19559,-22.47324 -5,-0.244 -30.68222,-89.06488 -34.09922,-93.05288 -3.812,-4.451 -2.634,-10.403 -2.083,-15.782 -27.934,-31.136 -34.181,-77.214 -36.4,-117.454 -0.523,-9.474 -2.402,-55.611 -0.508,-62.927 0.873,-3.369 3.258,-6.303 5.557,-8.841 32.289,-35.634 80.841,-53.829 128.101,-56.003 z"
     id="path230"
     sodipodi:nodetypes="ccsccccccsccscccccc" />
  <path
     fill="#FEFDFA"
     d="M615.309 200.223C648.395 198.83 687.026 204.505 716.898 219.263C722.543 222.052 737.559 231.362 739.961 236.944C739.835 238.773 740.157 237.966 738.817 239.388C736.257 240.244 711.651 234.394 706.787 233.628C696.351 231.909 685.824 230.793 675.26 230.286C599.363 226.753 521.494 248.118 451.997 277.08C404.497 296.876 359.312 318.257 320.818 353.323C301.653 370.965 285.209 389.838 273.038 412.966C271.446 415.991 268.457 424.338 265.541 425.417C258.997 424.307 259.423 402.665 258.756 396.622C251.792 343.219 302.361 302.578 346.241 281.979C404.824 254.477 476.107 225.174 539.454 210.489C564.319 204.47 589.738 201.03 615.309 200.223Z"
     id="path231" />
  <path
     fill="#FEFDFA"
     d="M560.614 136.791C603.698 132.327 646.486 161.513 678.388 187.605C669.837 185.695 655.814 184.893 646.658 184.159C561.171 177.302 478.412 206.378 400.55 238.332C376.296 248.286 349.273 259.364 326.563 272.443C304.768 285.195 283.059 298.837 265.658 317.415C263.505 319.713 262.12 321.498 259.141 322.802C256 322.627 255.472 320.55 255.255 317.671C253.205 291.415 272.995 269.437 292.442 254.351C320.87 232.299 355.009 216.673 386.956 200.332C425.954 180.386 464.994 160.566 507.053 147.887C525.956 142.189 541.146 138.655 560.614 136.791Z"
     id="path232" />
  <path
     fill="#FEFDFA"
     d="M650.756 256.713C654.662 256.407 661.45 256.404 665.4 256.5C698.446 257.301 753.662 263.679 777.374 288.564C783.891 295.426 788.808 303.645 791.773 312.632C798.009 331.523 796.967 365.072 796.412 385.002C773.729 351.633 745.242 329.115 707.38 314.724C673.892 301.509 642.506 298.107 607.252 293.464C566.614 288.112 529.885 286.834 488.964 288.224C495.654 284.43 506.114 280.217 513.386 277.563C547.02 265.287 583.317 260.282 618.894 258.008C629.414 257.336 640.185 257.242 650.756 256.713Z"
     id="path233" />
  <path
     fill="#FEFDFA"
     d="M697.524 447.745C724.996 472.546 726.054 519.091 728.057 553.655C731.499 613.085 734.118 683.529 703.042 736.734C681.279 773.995 641.408 807.029 599.401 817.968C602.605 814.542 605.644 810.565 608.584 806.88C614.292 799.557 618.73 792.724 623.414 784.702C633.218 767.914 635.907 757.939 652.731 747.132C651.82 752.541 651.488 759.184 651.578 764.668C659.871 758.554 666.09 753.756 672.245 745.168C693.632 715.325 704.031 666.604 698.203 630.491C700.946 633.168 704.031 635.489 707.049 637.857C706.229 618.181 700.809 588.416 696.57 569.192C699.879 572.386 702.384 574.339 706.242 576.755C703.866 558.303 700.115 539.487 697.935 520.93C696.161 505.838 696.283 491.184 696.486 476.036C696.609 466.826 696.527 456.859 697.524 447.745Z"
     id="path234" />
  <path
     fill="#FEFDFA"
     d="M329.195 443.846C330.194 447.275 330.304 459.888 330.636 464.088C332.641 489.4 332.16 512.256 328.892 537.526C327.257 550.17 324.549 563.956 323.273 576.424C326.947 574.209 329.825 571.945 333.216 569.352C329.923 593.047 325.269 614.841 322.975 638.85C326.457 636.416 328.582 634.633 331.636 631.745C329.229 647.508 330.903 674.196 334.063 689.936C338.328 711.176 347.581 736.71 362.301 752.957C366.655 757.762 371.187 761.135 376.489 764.73C376.555 758.149 376.25 753.418 375.764 746.85C396.753 760.535 403.671 785.17 418.456 805.819C422.002 810.833 425.653 815.257 429.52 820.014C409.231 815.123 389.679 805.058 373.473 792.098C331.671 759.341 312.949 717.882 307.054 665.982C302.046 621.891 303.632 581.858 307.503 537.757C309.479 515.245 308.905 492.427 315.281 470.375C318.662 458.684 321.795 453.276 329.195 443.846Z"
     id="path235" />
  <path
     fill="#FEFDFA"
     d="M578.941 308.993C583.078 308.862 595.292 310.344 599.899 310.774C622.895 312.923 645.959 315.613 668.395 321.144C711.21 331.699 755.642 360.362 778.306 398.688C785.95 411.615 793.336 430.548 789.357 445.778C784.233 449.645 779.116 433.914 776.087 429.739C753.354 398.407 714.59 377.604 681.282 359.248C648.042 340.774 613.884 324 578.941 308.993Z"
     id="path236" />
  <path
     fill="#FEFDFA"
     d="M490.288 116.234C500.799 116.128 523.49 117.33 533.354 120.914C523.97 122.554 507.626 128.265 498.696 131.541C470.236 141.981 442.298 155.391 415.041 168.663C387.414 182.358 359.665 195.804 331.796 208.999C321.133 213.984 311.283 218.336 300.223 222.25C304.948 216.29 309.903 210.515 315.076 204.938C330.379 188.52 350.053 172.44 368.673 159.941C406.07 134.838 444.834 117.773 490.288 116.234Z"
     id="path237" />
</svg>
