<?xml version="1.0" encoding="UTF-8" standalone="no"?>
<svg
   width="1024"
   height="1024"
   viewBox="0 0 1024 1024"
   version="1.1"
   id="svg237"
   sodipodi:docname="logo_main.svg"
   inkscape:version="1.4.3 (0d15f75042, 2025-12-25)"
   inkscape:export-filename="logo_main.png"
   inkscape:export-xdpi="300"
   inkscape:export-ydpi="300"
   xmlns:inkscape="http://www.inkscape.org/namespaces/inkscape"
   xmlns:sodipodi="http://sodipodi.sourceforge.net/DTD/sodipodi-0.dtd"
   xmlns="http://www.w3.org/2000/svg"
   xmlns:svg="http://www.w3.org/2000/svg">
  <sodipodi:namedview
     id="namedview237"
     pagecolor="#ffffff"
     bordercolor="#000000"
     borderopacity="0.25"
     inkscape:showpageshadow="2"
     inkscape:pageopacity="0.0"
     inkscape:pagecheckerboard="0"
     inkscape:deskcolor="#d1d1d1"
     inkscape:zoom="0.55890849"
     inkscape:cx="322.0563"
     inkscape:cy="418.67319"
     inkscape:window-width="1920"
     inkscape:window-height="981"
     inkscape:window-x="0"
     inkscape:window-y="27"
     inkscape:window-maximized="1"
     inkscape:current-layer="layer2"
     showguides="false"
     showgrid="true">
    <sodipodi:guide
       position="535.68481,353.96415"
       orientation="0,-1"
       id="guide1"
       inkscape:locked="false" />
    <sodipodi:guide
       position="412.2578,472.20304"
       orientation="1,0"
       id="guide2"
       inkscape:locked="false" />
    <sodipodi:guide
       position="613.5454,490.63858"
       orientation="1,0"
       id="guide3"
       inkscape:locked="false" />
    <sodipodi:guide
       position="486.83012,328.5767"
       orientation="0,-1"
       id="guide4"
       inkscape:locked="false" />
    <inkscape:grid
       id="grid4"
       units="px"
       originx="0"
       originy="0"
       spacingx="1"
       spacingy="1"
       empcolor="#0099e5"
       empopacity="0.30196078"
       color="#0099e5"
       opacity="0.14901961"
       empspacing="5"
       enabled="true"
       visible="true" />
    <inkscape:page
       x="0"
       y="0"
       width="1024"
       height="1024"
       id="page2"
       margin="0"
       bleed="0" />
  </sodipodi:namedview>
  <defs
     id="defs2" />
  <defs
     id="defs34" />
  <defs
     id="defs44" />
  <defs
     id="defs59" />
  <defs
     id="defs82" />
  <defs
     id="defs88" />
  <defs
     id="defs105" />
  <defs
     id="defs112" />
  <defs
     id="defs114" />
  <defs
     id="defs116" />
  <defs
     id="defs118" />
  <defs
     id="defs120" />
  <defs
     id="defs122" />
  <defs
     id="defs128" />
  <defs
     id="defs130" />
  <defs
     id="defs132" />
  <defs
     id="defs138" />
  <defs
     id="defs142" />
  <defs
     id="defs144" />
  <defs
     id="defs146" />
  <defs
     id="defs148" />
  <defs
     id="defs191" />
  <defs
     id="defs194" />
  <defs
     id="defs205" />
  <g
     inkscape:groupmode="layer"
     id="layer2"
     inkscape:label="Layer 1">
    <g
       id="g10"
       inkscape:label="Amama">
      <path
         style="fill:#ffffff"
         d="m 500.97647,304.16428 168.18495,59.04366 69.77887,75.14647 12.52441,207.54739 -73.35727,175.34176 -76.93567,30.41643 -191.44458,3.57841 -112.7197,-101.9845 3.5784,-284.48306 41.15164,-103.7737 85.88168,-59.04366 z"
         id="path1" />
      <path
         id="path11"
         style="opacity:1;fill:#000000"
         d="m 293.42188,645.43555 c -2.01203,0.009 -4.22273,1.16698 -6.67188,3.70312 -42.09561,43.59088 -175.15876,70.52136 -152.36523,109.18555 7.30368,12.38909 22.63202,27.03806 35.37109,39.17187 25.46031,24.25063 52.47384,47.15685 81.63476,66.80274 22.43504,15.11461 46.40313,28.14256 71.22266,38.90234 27.10005,11.74842 55.30075,21.44991 84.16406,27.72266 33.45719,7.27112 59.56635,11.1953 102.09571,11.2539 0.78955,10e-4 1.56021,-0.0318 2.3125,-0.0996 0.75229,0.0679 1.52294,0.1007 2.3125,0.0996 42.52936,-0.0586 68.63851,-3.98278 102.0957,-11.2539 28.86331,-6.27275 57.06206,-15.97424 84.16211,-27.72266 24.81953,-10.75978 48.78763,-23.78773 71.22266,-38.90234 29.16092,-19.64589 56.1764,-42.55211 81.63671,-66.80274 12.73907,-12.13381 28.06742,-26.78278 35.3711,-39.17187 22.79353,-38.66419 -110.27158,-65.59467 -152.36719,-109.18555 -24.1147,-24.97127 -25.01004,83.83623 -42.6543,103.89649 -16.9667,19.28992 -34.92892,26.98189 -57.04882,47.7539 -20.53673,19.28532 -56.22933,19.44073 -85.15625,26.14258 -12.20777,2.82832 -28.33138,-1.8426 -39.57422,1.85938 -11.24285,-3.70199 -27.36841,0.96894 -39.57617,-1.85938 -28.92693,-6.70185 -64.61953,-6.85726 -85.15626,-26.14258 -22.11989,-20.77201 -40.08017,-28.46398 -57.04687,-47.7539 -15.85226,-18.02289 -18.18567,-107.68302 -35.98437,-107.59961 z" />
      <path
         id="path4"
         style="opacity:1;fill:#dc7338;fill-opacity:1"
         d="m 342.80273,428.22656 -14.05078,13.6836 3.32813,68.41211 -8.50586,65.45507 9.24414,-5.17773 -10.35352,67.67383 c 0,0 7.47909,-5.97362 7.39649,-2.58985 -0.93784,38.43137 3.91256,109.77394 45.85351,128.69141 4.94534,2.23059 -5.86824,-19.70462 -0.36914,-16.27148 33.97033,21.20796 71.23794,149.21664 139.25563,149.14948 67.89264,-0.067 104.73499,-127.94152 138.70531,-149.14948 5.4991,-3.43314 -5.31448,18.50207 -0.36914,16.27148 41.94095,-18.91747 46.79331,-90.26004 45.85547,-128.69141 -0.0826,-3.38377 7.39453,2.58985 7.39453,2.58985 l -10.35352,-67.67383 9.24414,5.17773 -8.50585,-65.45507 3.33007,-68.41211 -14.05273,-13.6836 c 0,0 -6.71963,115.74976 -36.61133,129.80078 -13.90476,6.53613 -25.00098,87.06381 -26.99414,101.32422 -4.32571,30.94912 -67.95841,59.8659 -93.92969,65.08399 -5.72302,1.14986 -10.33481,6.81547 -13.98828,15.4707 -3.65346,-8.65523 -8.26525,-14.32084 -13.98828,-15.4707 -25.97128,-5.21809 -89.60398,-34.13487 -93.92969,-65.08399 -1.99316,-14.26041 -13.08938,-94.78809 -26.99414,-101.32422 -29.8917,-14.05102 -36.61133,-129.80078 -36.61133,-129.80078 z"
         sodipodi:nodetypes="cccccccssasssccccccssscsssc" />
      <path
         id="path5"
         style="display:inline;opacity:1;fill:#000000"
         d="M 494.64258 98.75 C 490.89154 98.66843 487.00659 99.058633 483.57422 99.304688 C 445.29051 102.04907 407.73315 116.62001 374.19531 135.28516 C 340.27456 154.16341 309.18335 179.78731 284.96289 210.125 C 261.39924 239.63999 240.92082 273.93708 233.1875 310.9043 C 224.479 352.53314 230.25498 397.12704 241.11133 438.24805 C 249.84891 471.3437 274.87964 499.06911 286.15625 530.53125 C 295.13986 555.59586 262.43597 576.3118 256.17969 608.78711 C 248.85386 646.81426 239.76765 675.834 262.75391 690.78516 C 274.87129 698.66678 300.49316 693.4319 303.67383 676.42969 C 312.91706 627.02015 297.52005 557.9152 310.17578 500.67188 C 315.78129 475.3175 319.65489 458.96963 339.7832 433.96875 C 351.04312 419.98308 337.10045 389.56997 348.37695 375.59766 C 384.11457 331.31642 431.98984 313.19813 508.04102 315.1875 C 510.37247 315.2485 512.59969 315.1336 514.72461 314.85156 C 515.30783 315.05615 515.89559 315.24774 516.48633 315.42773 C 576.37075 333.67382 581.52204 328.74094 615.55664 349.66602 C 633.61947 360.77137 643.00416 365.08281 670.92188 380.99023 C 678.09513 385.07753 680.45961 394.86367 682.57617 402.84375 C 684.75587 411.06189 680.94351 420.17199 683.30469 428.33984 C 689.63077 450.2232 716.75769 454.8625 721.91406 482.97656 C 727.14532 511.49892 726.45996 541.21724 727.74219 570.39258 C 728.7446 593.20114 730.51547 616.07654 729.19922 638.86914 C 728.06872 658.44518 721.68508 683.50463 721.18555 697.14648 C 720.47331 716.59723 764.39651 705.82637 779.46289 693.50391 C 787.44186 686.97804 786.74177 673.91835 787.47656 663.63672 C 788.34825 651.43955 786.83839 638.85747 783.10547 627.21289 C 779.5559 616.14025 771.82994 606.87341 766.35156 596.61719 C 760.15986 585.02554 751.06384 574.46237 748.13867 561.65039 C 746.40824 554.07128 743.00332 543.44399 748.86719 538.33984 C 768.32246 521.4052 790.43106 507.22641 802.77539 475.69141 C 807.93046 462.52218 812.22707 448.86615 814.42969 434.89648 C 818.81933 407.05615 819.37354 378.50561 817.34375 350.39453 C 816.06427 332.67468 813.94641 314.64096 807.87305 297.94531 C 801.18057 279.54771 791.29583 261.96683 778.73438 246.95117 C 747.65386 209.79841 708.14166 179.71842 667.2793 153.70703 C 639.69545 136.14822 609.75018 121.49696 578.40625 112.18359 C 554.90822 105.20151 525.90721 100.15233 504.90625 101.03125 C 502.01081 99.384979 498.39361 98.831568 494.64258 98.75 z M 503.57617 115.46289 C 506.46837 115.5138 509.35377 115.67794 512.22852 115.99609 C 518.71843 116.71435 537.21324 118.3321 531.19922 120.875 C 446.87309 156.53049 357.54829 200.10369 303 221.15234 C 297.06178 223.44373 309.53883 210.12373 313.8418 205.43359 C 326.50978 191.62578 342.2906 181.00244 357.20508 169.6582 C 369.49287 160.31187 381.65819 150.60674 395.14844 143.09961 C 409.57703 135.07031 424.85591 128.3042 440.67969 123.58594 C 452.63561 120.02098 465.12708 118.3623 477.53711 117.08008 C 486.16805 116.18832 494.89956 115.31015 503.57617 115.46289 z M 565.125 135.0957 C 575.23266 135.32527 585.38964 137.34212 595.16016 139.8457 C 612.02995 144.16839 628.51201 150.87165 643.40234 159.90234 C 655.68588 167.35207 682.31321 174.42425 676.4668 187.54688 C 673.34721 194.549 661.32976 185.04543 653.70117 184.29297 C 640.55552 182.99633 627.33709 181.75573 614.13281 182.125 C 596.14242 182.62812 578.14865 184.71188 560.4707 188.08789 C 528.82622 194.13112 497.85975 203.5535 467.23828 213.56445 C 448.48447 219.69555 430.17523 227.14141 411.95117 234.70312 C 390.73648 243.50573 369.56537 252.51462 349.07422 262.89062 C 329.80038 272.65023 310.62091 282.80405 292.70117 294.87109 C 279.89819 303.49254 270.97208 328.64308 256.38477 323.59766 C 251.99467 322.07923 252.5644 314.65724 253.13281 310.04688 C 254.85346 296.0908 263.7294 283.51932 272.64648 272.64648 C 283.97329 258.83538 299.36824 248.71407 314.38281 239.03906 C 355.8837 212.29693 401.11602 191.4735 446.64062 172.36914 C 481.83489 157.5999 517.11201 139.70067 555.04883 135.50977 C 558.39056 135.1406 561.75578 135.01918 565.125 135.0957 z M 624.43164 198.92969 C 643.12912 198.98699 662.10702 199.87681 680.26172 204.34961 C 691.43594 207.10262 701.7576 212.61237 712.24219 217.35742 C 719.60365 220.68903 728.50193 222.20809 733.92383 228.19922 C 736.6483 231.20973 742.27027 238.94813 738.25977 239.58203 C 720.31696 242.41809 696.64617 229.44109 675.38281 228.19922 C 649.35843 226.67929 623.11076 229.22661 597.32812 233.07812 C 577.30367 236.06947 557.68342 241.50267 538.24609 247.16992 C 504.83892 256.91028 471.60097 267.65905 439.5957 281.31836 C 417.00211 290.96092 395.03342 302.22251 374.00781 314.92578 C 355.47285 326.12425 337.32725 338.22924 320.88867 352.32617 C 310.60662 361.14356 300.93585 370.84327 292.70117 381.59766 C 282.4532 394.98139 283.5327 424.45647 266.68359 424.95898 C 262.52587 425.08298 260.9701 418.60218 259.63672 414.66211 C 255.22885 401.63704 254.73559 386.94314 257.46875 373.4668 C 260.4241 358.8949 268.1998 345.35297 276.98242 333.35547 C 285.81483 321.28996 297.23683 311.00642 309.50586 302.45898 C 340.40218 280.9345 376.23223 267.36696 410.86719 252.5918 C 441.4651 239.53883 472.65541 227.58428 504.64062 218.44336 C 528.25257 211.69541 552.44562 206.91303 576.73047 203.26562 C 592.51882 200.89434 608.46629 198.8808 624.43164 198.92969 z M 640.1543 256.71484 C 652.83718 256.26034 665.56844 256.07314 678.22656 256.98633 C 696.11482 258.27684 714.1974 259.70985 731.52734 264.32812 C 740.87989 266.8205 749.83355 270.79653 758.44922 275.20703 C 765.41148 278.77112 772.81828 282.14037 778.30273 287.7168 C 784.54902 294.06784 789.19366 302.16324 792.17188 310.55859 C 796.63792 323.14807 796.96524 336.92103 797.60938 350.26367 C 798.16053 361.68098 807.1548 381.10036 796.25 384.52734 C 789.52192 386.64173 788.02793 373.04863 783.46875 367.66797 C 777.58239 360.72099 771.56918 353.7992 764.70508 347.81641 C 755.88758 340.13102 746.33715 333.16827 736.15039 327.41992 C 722.9958 319.99684 708.88461 314.21021 694.54297 309.4707 C 682.51784 305.49673 670.00459 303.11334 657.55859 300.76953 C 639.83307 297.43149 621.86574 295.53403 603.98633 293.1543 C 591.58173 291.50326 579.22063 289.30323 566.73047 288.53125 C 541.30695 286.9599 500.97681 291.34226 490.31445 288.53125 C 472.91388 283.94379 523.27983 273.7509 540.62305 268.95117 C 556.22087 264.63448 572.42609 262.79158 588.48633 260.79297 C 605.63076 258.65944 622.88871 257.33357 640.1543 256.71484 z M 580.05469 309.19922 C 602.63535 309.20379 628.71152 312.9467 652.66406 317.35742 C 664.44825 319.52741 676.27434 322.06899 687.47266 326.33203 C 700.62015 331.33709 713.04762 338.22436 725.00195 345.64062 C 734.47678 351.51866 743.83472 357.81822 751.92383 365.49219 C 761.96922 375.02203 771.21564 385.68662 778.30273 397.58203 C 783.96326 407.08301 789.09169 417.38554 790.81055 428.31055 C 791.75711 434.32683 794.2594 442.79326 789.45117 446.53125 C 788.21576 447.49168 786.10111 446.62489 784.82812 445.71484 C 779.94331 442.22272 779.465 434.93473 776.12695 429.94336 C 773.22297 425.60105 769.87211 421.5501 766.33594 417.70508 C 759.91196 410.72003 753.18851 403.91292 745.66797 398.125 C 727.76574 384.34719 707.77652 373.44999 688.01758 362.5 C 652.91362 343.04611 540.47711 309.19122 580.05469 309.19922 z " />
    </g>
  </g>
</svg>
