<?xml version="1.0" encoding="UTF-8" standalone="no"?>
<svg
   width="1024"
   height="1024"
   viewBox="0 0 1024 1024"
   version="1.1"
   id="svg237"
   sodipodi:docname="logo_main.svg"
   inkscape:version="1.4.3 (0d15f75042, 2025-12-25)"
   inkscape:export-filename="logo_main1.png"
   inkscape:export-xdpi="24"
   inkscape:export-ydpi="24"
   xmlns:inkscape="http://www.inkscape.org/namespaces/inkscape"
   xmlns:sodipodi="http://sodipodi.sourceforge.net/DTD/sodipodi-0.dtd"
   xmlns="http://www.w3.org/2000/svg"
   xmlns:svg="http://www.w3.org/2000/svg">
  <sodipodi:namedview
     id="namedview237"
     pagecolor="#ffffff"
     bordercolor="#000000"
     borderopacity="0.25"
     inkscape:showpageshadow="2"
     inkscape:pageopacity="0.0"
     inkscape:pagecheckerboard="0"
     inkscape:deskcolor="#d1d1d1"
     inkscape:zoom="0.55890849"
     inkscape:cx="322.0563"
     inkscape:cy="418.67319"
     inkscape:window-width="1920"
     inkscape:window-height="981"
     inkscape:window-x="0"
     inkscape:window-y="27"
     inkscape:window-maximized="1"
     inkscape:current-layer="layer2"
     showguides="false"
     showgrid="true">
    <sodipodi:guide
       position="535.68481,353.96415"
       orientation="0,-1"
       id="guide1"
       inkscape:locked="false" />
    <sodipodi:guide
       position="412.2578,472.20304"
       orientation="1,0"
       id="guide2"
       inkscape:locked="false" />
    <sodipodi:guide
       position="613.5454,490.63858"
       orientation="1,0"
       id="guide3"
       inkscape:locked="false" />
    <sodipodi:guide
       position="486.83012,328.5767"
       orientation="0,-1"
       id="guide4"
       inkscape:locked="false" />
    <inkscape:grid
       id="grid4"
       units="px"
       originx="0"
       originy="0"
       spacingx="1"
       spacingy="1"
       empcolor="#0099e5"
       empopacity="0.30196078"
       color="#0099e5"
       opacity="0.14901961"
       empspacing="5"
       enabled="true"
       visible="true" />
    <inkscape:page
       x="0"
       y="0"
       width="1024"
       height="1024"
       id="page2"
       margin="0"
       bleed="0" />
  </sodipodi:namedview>
  <defs
     id="defs2" />
  <defs
     id="defs34" />
  <defs
     id="defs44" />
  <defs
     id="defs59" />
  <defs
     id="defs82" />
  <defs
     id="defs88" />
  <defs
     id="defs105" />
  <defs
     id="defs112" />
  <defs
     id="defs114" />
  <defs
     id="defs116" />
  <defs
     id="defs118" />
  <defs
     id="defs120" />
  <defs
     id="defs122" />
  <defs
     id="defs128" />
  <defs
     id="defs130" />
  <defs
     id="defs132" />
  <defs
     id="defs138" />
  <defs
     id="defs142" />
  <defs
     id="defs144" />
  <defs
     id="defs146" />
  <defs
     id="defs148" />
  <defs
     id="defs191" />
  <defs
     id="defs194" />
  <defs
     id="defs205" />
  <g
     inkscape:groupmode="layer"
     id="layer2"
     inkscape:label="Layer 1">
    <g
       id="g10"
       inkscape:label="Amama"
       transform="matrix(1.2142531,0,0,1.2142531,-113.15698,-119.77203)">
      <path
         style="fill:#ffffff"
         d="m 500.97647,304.16428 168.18495,59.04366 69.77887,75.14647 12.52441,207.54739 -73.35727,175.34176 -76.93567,30.41643 -191.44458,3.57841 -112.7197,-101.9845 3.5784,-284.48306 41.15164,-103.7737 85.88168,-59.04366 z"
         id="path1" />
      <path
         id="path11"
         style="opacity:1;fill:#000000"
         d="m 293.42188,645.43555 c -2.01203,0.009 -4.22273,1.16698 -6.67188,3.70312 -42.09561,43.59088 -175.15876,70.52136 -152.36523,109.18555 7.30368,12.38909 22.63202,27.03806 35.37109,39.17187 25.46031,24.25063 52.47384,47.15685 81.63476,66.80274 22.43504,15.11461 46.40313,28.14256 71.22266,38.90234 27.10005,11.74842 55.30075,21.44991 84.16406,27.72266 33.45719,7.27112 59.56635,11.1953 102.09571,11.2539 0.78955,10e-4 1.56021,-0.0318 2.3125,-0.0996 0.75229,0.0679 1.52294,0.1007 2.3125,0.0996 42.52936,-0.0586 68.63851,-3.98278 102.0957,-11.2539 28.86331,-6.27275 57.06206,-15.97424 84.16211,-27.72266 24.81953,-10.75978 48.78763,-23.78773 71.22266,-38.90234 29.16092,-19.64589 56.1764,-42.55211 81.63671,-66.80274 12.73907,-12.13381 28.06742,-26.78278 35.3711,-39.17187 22.79353,-38.66419 -110.27158,-65.59467 -152.36719,-109.18555 -24.1147,-24.97127 -25.01004,83.83623 -42.6543,103.89649 -16.9667,19.28992 -34.92892,26.98189 -57.04882,47.7539 -20.53673,19.28532 -56.22933,19.44073 -85.15625,26.14258 -12.20777,2.82832 -28.33138,-1.8426 -39.57422,1.85938 -11.24285,-3.70199 -27.36841,0.96894 -39.57617,-1.85938 -28.92693,-6.70185 -64.61953,-6.85726 -85.15626,-26.14258 -22.11989,-20.77201 -40.08017,-28.46398 -57.04687,-47.7539 -15.85226,-18.02289 -18.18567,-107.68302 -35.98437,-107.59961 z" />
      <path
         id="path4"
         style="opacity:1;fill:#dc7338;fill-opacity:1"
         d="m 342.80273,428.22656 -14.05078,13.6836 3.32813,68.41211 -8.50586,65.45507 9.24414,-5.17773 -10.35352,67.67383 c 0,0 7.47909,-5.97362 7.39649,-2.58985 -0.93784,38.43137 3.91256,109.77394 45.85351,128.69141 4.94534,2.23059 -5.86824,-19.70462 -0.36914,-16.27148 33.97033,21.20796 71.23794,149.21664 139.25563,149.14948 67.89264,-0.067 104.73499,-127.94152 138.70531,-149.14948 5.4991,-3.43314 -5.31448,18.50207 -0.36914,16.27148 41.94095,-18.91747 46.79331,-90.26004 45.85547,-128.69141 -0.0826,-3.38377 7.39453,2.58985 7.39453,2.58985 l -10.35352,-67.67383 9.24414,5.17773 -8.50585,-65.45507 3.33007,-68.41211 -14.05273,-13.6836 c 0,0 -6.71963,115.74976 -36.61133,129.80078 -13.90476,6.53613 -25.00098,87.06381 -26.99414,101.32422 -4.32571,30.94912 -67.95841,59.8659 -93.92969,65.08399 -5.72302,1.14986 -10.33481,6.81547 -13.98828,15.4707 -3.65346,-8.65523 -8.26525,-14.32084 -13.98828,-15.4707 -25.97128,-5.21809 -89.60398,-34.13487 -93.92969,-65.08399 -1.99316,-14.26041 -13.08938,-94.78809 -26.99414,-101.32422 -29.8917,-14.05102 -36.61133,-129.80078 -36.61133,-129.80078 z"
         sodipodi:nodetypes="cccccccssasssccccccssscsssc" />
      <path
         id="path5"
         style="display:inline;opacity:1;fill:#000000"
         d="m 494.64258,98.75 c -3.75104,-0.08157 -7.63599,0.308633 -11.06836,0.554688 -38.28371,2.744382 -75.84107,17.315322 -109.37891,35.980472 -33.92075,18.87825 -65.01196,44.50215 -89.23242,74.83984 -23.56365,29.51499 -44.04207,63.81208 -51.77539,100.7793 -8.7085,41.62884 -2.93252,86.22274 7.92383,127.34375 8.73758,33.09565 33.76831,60.82106 45.04492,92.2832 8.98361,25.06461 -23.72028,45.78055 -29.97656,78.25586 -7.32583,38.02715 -16.41204,67.04689 6.57422,81.99805 12.11738,7.88162 37.73925,2.64674 40.91992,-14.35547 9.24323,-49.40954 -6.15378,-118.51449 6.50195,-175.75781 5.60551,-25.35438 9.47911,-41.70225 29.60742,-66.70313 11.25992,-13.98567 -2.68275,-44.39878 8.59375,-58.37109 35.73762,-44.28124 83.61289,-62.39953 159.66407,-60.41016 2.33145,0.061 4.55867,-0.0539 6.68359,-0.33594 0.58322,0.20459 1.17098,0.39618 1.76172,0.57617 59.88442,18.24609 65.03571,13.31321 99.07031,34.23829 18.06283,11.10535 27.44752,15.41679 55.36524,31.32421 7.17325,4.0873 9.53773,13.87344 11.65429,21.85352 2.1797,8.21814 -1.63266,17.32824 0.72852,25.49609 6.32608,21.88336 33.453,26.52266 38.60937,54.63672 5.23126,28.52236 4.5459,58.24068 5.82813,87.41602 1.00241,22.80856 2.77328,45.68396 1.45703,68.47656 -1.1305,19.57604 -7.51414,44.63549 -8.01367,58.27734 -0.71224,19.45075 43.21096,8.67989 58.27734,-3.64257 7.97897,-6.52587 7.27888,-19.58556 8.01367,-29.86719 0.87169,-12.19717 -0.63817,-24.77925 -4.37109,-36.42383 -3.54957,-11.07264 -11.27553,-20.33948 -16.75391,-30.5957 -6.1917,-11.59165 -15.28772,-22.15482 -18.21289,-34.9668 -1.73043,-7.57911 -5.13535,-18.2064 0.72852,-23.31055 19.45527,-16.93464 41.56387,-31.11343 53.9082,-62.64843 5.15507,-13.16923 9.45168,-26.82526 11.6543,-40.79493 4.38964,-27.84033 4.94385,-56.39087 2.91406,-84.50195 -1.27948,-17.71985 -3.39734,-35.75357 -9.4707,-52.44922 -6.69248,-18.3976 -16.57722,-35.97848 -29.13867,-50.99414 -31.08052,-37.15276 -70.59272,-67.23275 -111.45508,-93.24414 -27.58385,-17.55881 -57.52912,-32.21007 -88.87305,-41.52344 -23.49803,-6.98208 -52.49904,-12.03126 -73.5,-11.15234 -2.89544,-1.646271 -6.51264,-2.199682 -10.26367,-2.28125 z m 8.93359,16.71289 c 2.8922,0.0509 5.7776,0.21505 8.65235,0.5332 6.48991,0.71826 24.98472,2.33601 18.9707,4.87891 C 446.87309,156.53049 357.54829,200.10369 303,221.15234 c -5.93822,2.29139 6.53883,-11.02861 10.8418,-15.71875 12.66798,-13.80781 28.4488,-24.43115 43.36328,-35.77539 12.28779,-9.34633 24.45311,-19.05146 37.94336,-26.55859 14.42859,-8.0293 29.70747,-14.79541 45.53125,-19.51367 11.95592,-3.56496 24.44739,-5.22364 36.85742,-6.50586 8.63094,-0.89176 17.36245,-1.76993 26.03906,-1.61719 z M 565.125,135.0957 c 10.10766,0.22957 20.26464,2.24642 30.03516,4.75 16.86979,4.32269 33.35185,11.02595 48.24218,20.05664 12.28354,7.44973 38.91087,14.52191 33.06446,27.64454 -3.11959,7.00212 -15.13704,-2.50145 -22.76563,-3.25391 -13.14565,-1.29664 -26.36408,-2.53724 -39.56836,-2.16797 -17.99039,0.50312 -35.98416,2.58688 -53.66211,5.96289 -31.64448,6.04323 -62.61095,15.46561 -93.23242,25.47656 -18.75381,6.1311 -37.06305,13.57696 -55.28711,21.13867 -21.21469,8.80261 -42.3858,17.8115 -62.87695,28.1875 -19.27384,9.75961 -38.45331,19.91343 -56.37305,31.98047 -12.80298,8.62145 -21.72909,33.77199 -36.3164,28.72657 -4.3901,-1.51843 -3.82037,-8.94042 -3.25196,-13.55078 1.72065,-13.95608 10.59659,-26.52756 19.51367,-37.4004 11.32681,-13.8111 26.72176,-23.93241 41.73633,-33.60742 41.50089,-26.74213 86.73321,-47.56556 132.25781,-66.66992 35.19427,-14.76924 70.47139,-32.66847 108.40821,-36.85937 3.34173,-0.36917 6.70695,-0.49059 10.07617,-0.41407 z m 59.30664,63.83399 c 18.69748,0.0573 37.67538,0.94712 55.83008,5.41992 11.17422,2.75301 21.49588,8.26276 31.98047,13.00781 7.36146,3.33161 16.25974,4.85067 21.68164,10.8418 2.72447,3.01051 8.34644,10.74891 4.33594,11.38281 -17.94281,2.83606 -41.6136,-10.14094 -62.87696,-11.38281 -26.02438,-1.51993 -52.27205,1.02739 -78.05469,4.8789 -20.02445,2.99135 -39.6447,8.42455 -59.08203,14.0918 -33.40717,9.74036 -66.64512,20.48913 -98.65039,34.14844 -22.59359,9.64256 -44.56228,20.90415 -65.58789,33.60742 -18.53496,11.19847 -36.68056,23.30346 -53.11914,37.40039 -10.28205,8.81739 -19.95282,18.5171 -28.1875,29.27149 -10.24797,13.38373 -9.16847,42.85881 -26.01758,43.36132 -4.15772,0.124 -5.71349,-6.3568 -7.04687,-10.29687 -4.40787,-13.02507 -4.90113,-27.71897 -2.16797,-41.19531 2.95535,-14.5719 10.73105,-28.11383 19.51367,-40.11133 8.83241,-12.06551 20.25441,-22.34905 32.52344,-30.89649 30.89632,-21.52448 66.72637,-35.09202 101.36133,-49.86718 30.59791,-13.05297 61.78822,-25.00752 93.77343,-34.14844 23.61195,-6.74795 47.805,-11.53033 72.08985,-15.17774 15.78835,-2.37128 31.73582,-4.38482 47.70117,-4.33593 z m 15.72266,57.78515 c 12.68288,-0.4545 25.41414,-0.6417 38.07226,0.27149 17.88826,1.29051 35.97084,2.72352 53.30078,7.34179 9.35255,2.49238 18.30621,6.46841 26.92188,10.87891 6.96226,3.56409 14.36906,6.93334 19.85351,12.50977 6.24629,6.35104 10.89093,14.44644 13.86915,22.84179 4.46604,12.58948 4.79336,26.36244 5.4375,39.70508 0.55115,11.41731 9.54542,30.83669 -1.35938,34.26367 -6.72808,2.11439 -8.22207,-11.47871 -12.78125,-16.85937 -5.88636,-6.94698 -11.89957,-13.86877 -18.76367,-19.85156 -8.8175,-7.68539 -18.36793,-14.64814 -28.55469,-20.39649 -13.15459,-7.42308 -27.26578,-13.20971 -41.60742,-17.94922 -12.02513,-3.97397 -24.53838,-6.35736 -36.98438,-8.70117 -17.72552,-3.33804 -35.69285,-5.2355 -53.57226,-7.61523 -12.4046,-1.65104 -24.7657,-3.85107 -37.25586,-4.62305 -25.42352,-1.57135 -65.75366,2.81101 -76.41602,0 -17.40057,-4.58746 32.96538,-14.78035 50.3086,-19.58008 15.59782,-4.31669 31.80304,-6.15959 47.86328,-8.1582 17.14443,-2.13353 34.40238,-3.4594 51.66797,-4.07813 z m -60.09961,52.48438 c 22.58066,0.005 48.65683,3.74748 72.60937,8.1582 11.78419,2.16999 23.61028,4.71157 34.8086,8.97461 13.14749,5.00506 25.57496,11.89233 37.52929,19.30859 9.47483,5.87804 18.83277,12.1776 26.92188,19.85157 10.04539,9.52984 19.29181,20.19443 26.3789,32.08984 5.66053,9.50098 10.78896,19.80351 12.50782,30.72852 0.94656,6.01628 3.44885,14.48271 -1.35938,18.2207 -1.23541,0.96043 -3.35006,0.0936 -4.62305,-0.81641 -4.88481,-3.49212 -5.36312,-10.78011 -8.70117,-15.77148 -2.90398,-4.34231 -6.25484,-8.39326 -9.79101,-12.23828 C 759.91196,410.72003 753.18851,403.91292 745.66797,398.125 727.76574,384.34719 707.77652,373.44999 688.01758,362.5 652.91362,343.04611 540.47711,309.19122 580.05469,309.19922 Z" />
    </g>
  </g>
</svg>
