<?xml version="1.0" encoding="UTF-8" standalone="no"?>
<!-- Created with Inkscape (http://www.inkscape.org/) -->

<svg
   width="270.12967mm"
   height="66.212341mm"
   viewBox="0 0 270.12967 66.212341"
   version="1.1"
   id="svg1"
   xmlns:inkscape="http://www.inkscape.org/namespaces/inkscape"
   xmlns:sodipodi="http://sodipodi.sourceforge.net/DTD/sodipodi-0.dtd"
   xmlns="http://www.w3.org/2000/svg"
   xmlns:svg="http://www.w3.org/2000/svg">
  <sodipodi:namedview
     id="namedview1"
     pagecolor="#ffffff"
     bordercolor="#000000"
     borderopacity="0.25"
     inkscape:showpageshadow="2"
     inkscape:pageopacity="0.0"
     inkscape:pagecheckerboard="0"
     inkscape:deskcolor="#d1d1d1"
     inkscape:document-units="mm"
     inkscape:zoom="0.6877385"
     inkscape:cx="396.22618"
     inkscape:cy="561.25984"
     inkscape:window-width="1920"
     inkscape:window-height="981"
     inkscape:window-x="0"
     inkscape:window-y="27"
     inkscape:window-maximized="1"
     inkscape:current-layer="layer1"
     showguides="true">
    <sodipodi:guide
       position="151.50355,-0.23330498"
       orientation="0,-1"
       id="guide1"
       inkscape:locked="false" />
    <inkscape:page
       x="0"
       y="0"
       width="270.12967"
       height="66.212341"
       id="page2"
       margin="0"
       bleed="0" />
  </sodipodi:namedview>
  <defs
     id="defs1" />
  <g
     inkscape:label="Layer 1"
     inkscape:groupmode="layer"
     id="layer1"
     transform="translate(22.744201,-84.39483)">
    <path
       style="font-size:101.326px;font-family:KacstDecorative;-inkscape-font-specification:'KacstDecorative, Normal';letter-spacing:0px;stroke-width:0.527739"
       d="m 233.03755,144.67009 c 0,-3.99103 1.99552,-5.98655 5.98655,-5.98655 1.51725,0 2.90256,0.57722 4.15594,1.73165 1.2204,1.12145 1.8306,2.53975 1.8306,4.2549 0,1.58322 -0.6102,2.96854 -1.8306,4.15595 -1.18741,1.18741 -2.57272,1.78112 -4.15594,1.78112 -1.71515,0 -3.13345,-0.59371 -4.2549,-1.78112 -1.15443,-1.25338 -1.73165,-2.6387 -1.73165,-4.15595 z m -8.26242,-30.32203 h 11.132 V 85.50379 h 11.47834 v 28.44846 c 0,9.86213 -3.85909,14.80969 -11.57729,14.84268 h -11.03305 z m -27.45896,29.7843 c -2.24289,-1.15443 -4.0405,-0.26387 -5.39284,2.67168 -1.28636,3.69417 -2.50676,3.11696 -3.66119,-1.73165 -0.26387,-2.30886 0.31334,-4.74965 1.73164,-7.32238 1.2204,-2.40781 3.61172,-2.90257 7.17396,-1.48427 3.56225,1.4183 5.4918,1.58322 5.78865,0.49476 V 93.667262 c 0,-0.923545 0.24738,-2.259386 0.74213,-4.007523 0.52774,-1.814105 2.19342,-3.397323 4.99703,-4.749656 4.02402,-1.121447 6.95958,-0.412297 8.80666,2.12745 0.8246,1.4183 1.4183,2.473779 1.78112,3.166438 0.39581,0.692658 0.56073,1.006003 0.49476,0.940036 -3.19942,-1.220398 -5.0795,-1.088463 -5.64022,0.395804 v 22.808249 h 10.9341 v 14.24896 h -10.9341 v 7.7182 c 0.26387,3.43031 -0.37931,6.08549 -1.92955,7.96556 -1.55023,1.91306 -3.87558,2.93556 -6.97606,3.06749 -3.16643,0.16492 -5.80513,-0.90705 -7.91609,-3.21591 z m -34.58071,0.53773 c 0,-3.99103 1.99552,-5.98655 5.98654,-5.98655 1.51726,0 2.90257,0.57722 4.15595,1.73165 1.2204,1.12145 1.8306,2.53975 1.8306,4.2549 0,1.58322 -0.6102,2.96854 -1.8306,4.15595 -1.18741,1.18741 -2.57273,1.78112 -4.15595,1.78112 -1.71515,0 -3.13345,-0.59371 -4.2549,-1.78112 -1.15442,-1.25338 -1.73164,-2.6387 -1.73164,-4.15595 z m -5.46216,-30.32203 h 11.13201 V 85.50379 h 11.47833 v 28.44846 c 0,9.86213 -3.85909,14.80969 -11.57728,14.84268 H 157.2733 Z m -27.45894,29.7843 c -2.24289,-1.15443 -4.0405,-0.26387 -5.39284,2.67168 -1.28636,3.69417 -2.50676,3.11696 -3.66119,-1.73165 -0.26387,-2.30886 0.31334,-4.74965 1.73164,-7.32238 1.2204,-2.40781 3.61172,-2.90257 7.17396,-1.48427 3.56225,1.4183 5.4918,1.58322 5.78865,0.49476 V 93.667262 c 0,-0.923545 0.24738,-2.259386 0.74213,-4.007523 0.52774,-1.814105 2.19342,-3.397323 4.99703,-4.749656 4.02402,-1.121447 6.95958,-0.412297 8.80666,2.12745 0.8246,1.4183 1.4183,2.473779 1.78112,3.166438 0.39581,0.692658 0.56073,1.006003 0.49476,0.940036 -3.19942,-1.220398 -5.0795,-1.088463 -5.64022,0.395804 v 22.808249 h 10.9341 v 14.24896 h -10.9341 v 7.7182 c 0.26387,3.43031 -0.37931,6.08549 -1.92955,7.96556 -1.55023,1.91306 -3.87558,2.93556 -6.97606,3.06749 -3.16643,0.16492 -5.80513,-0.90705 -7.91609,-3.21591 z M 98.692145,128.74545 h -8.410849 c -5.838119,-0.13193 -10.703218,-2.19342 -14.595297,-6.18445 -3.991031,-4.18893 -5.986546,-9.12 -5.986546,-14.7932 -0.197902,-3.59523 0.280362,-7.60275 1.434792,-12.022564 1.187414,-4.287884 3.067486,-7.404846 5.640217,-9.350885 2.04499,-1.550235 3.034502,-1.929548 2.968535,-1.137939 -0.06597,0.758626 0.03298,1.583219 0.296853,2.47378 0.26387,0.857577 0.874069,1.187414 1.830597,0.989511 2.770632,-1.286365 5.706184,-1.929548 8.806654,-1.929548 5.739167,0 10.637249,2.061483 14.694249,6.184448 3.69418,3.991031 5.8876,8.988067 6.58026,14.991107 v 25.5294 c 0,4.15595 -1.20391,7.78416 -3.61172,10.88463 -2.37483,3.16643 -5.50829,5.063 -9.400367,5.68969 -4.024014,0.65967 -7.454321,0.52774 -10.290921,-0.39581 -3.001519,-0.92354 -5.772152,-3.13345 -8.311898,-6.62973 -1.550236,-1.97902 -3.545751,-1.97902 -5.986546,0 -2.803617,2.70467 -3.644702,1.64919 -2.523255,-3.16643 1.022495,-2.07797 2.605714,-3.99103 4.749656,-5.73917 2.176926,-1.64919 5.260904,-0.57722 9.251935,3.21591 2.012006,1.71515 4.601228,2.35834 7.767666,1.92955 3.331356,-0.39581 5.030017,-2.35834 5.095985,-5.88759 z m -7.916093,-13.90264 c 2.04499,0 3.776636,-0.70915 5.194936,-2.12745 1.451284,-1.45128 2.176926,-3.19942 2.176926,-5.24441 0,-2.01201 -0.725642,-3.74365 -2.176926,-5.19494 -1.451284,-1.48427 -3.182929,-2.2264 -5.194936,-2.2264 -2.110958,0 -3.875587,0.74213 -5.293887,2.2264 -1.418301,1.4183 -2.127451,3.14995 -2.127451,5.19494 0,2.07797 0.70915,3.82611 2.127451,5.24441 1.4183,1.4183 3.182929,2.12745 5.293887,2.12745 z m -37.356127,-0.69266 c 0.131935,9.66423 -4.007522,14.52933 -12.418371,14.5953 H 13.691031 c -0.296853,5.17845 -2.259385,9.48282 -5.8875945,12.91313 -3.5952257,3.43031 -7.9160934,4.91457 -12.962603,4.4528 -3.8590957,-0.39581 -6.9430735,-1.50076 -9.2519345,-3.31486 -2.275877,-1.78112 -4.024014,-3.67769 -5.244412,-5.6897 -1.220397,-2.01201 -2.012007,-3.82611 -2.374828,-5.44231 -0.362821,-1.58322 -0.593707,-5.98655 -0.692658,-13.20998 -0.09895,-7.25642 0.148427,-11.74221 0.742134,-13.45736 0.593707,-1.74814 2.226401,-3.41382 4.898083,-4.99703 4.2549,-1.022498 7.2399268,-0.181415 8.9550804,2.52325 1.7481373,2.67168 2.5727304,3.97454 2.4737792,3.90857 -3.1994211,-0.95653 -4.9640506,-0.84108 -5.2938876,0.34633 -0.329837,1.18741 -0.494756,7.93259 -0.494756,20.23552 0.131935,1.4183 0.511248,2.6222 1.137939,3.61171 1.1874139,1.88007 3.067486,2.95205 5.6402163,3.21592 0.956528,0.16491 2.1934176,-0.18142 3.71066884,-1.03899 1.55023497,-0.85758 2.68817346,-2.20991 3.41381536,-4.057 V 111.6269 94.508347 c 0,-0.857577 0.230886,-2.193418 0.6926581,-4.007523 0.4947559,-1.814105 2.1934176,-3.380831 5.0959852,-4.70018 4.0240142,-1.220398 6.9100902,-0.494756 8.6582272,2.176925 1.748137,2.671682 2.57273,4.007523 2.473779,4.007523 -3.166437,-0.956528 -5.063001,-0.296854 -5.689692,1.979023 v 10.043545 10.14249 h 9.30141 V 85.454315 h 10.835153 v 28.695835 h 8.658227 c 0,-19.130557 3.644701,-28.695835 10.934104,-28.695835 z"
       id="text1"
       aria-label="بربروس"
       sodipodi:nodetypes="sscscscsccccscccccccscsccccccccccccccsscscscsccccscccccccscscccccccccccccccccccccccsccscccccccccccssscscsssccccccsccccccsccccccsccsccccccccccc"
       inkscape:export-filename="text1.svg"
       inkscape:export-xdpi="96"
       inkscape:export-ydpi="96" />
  </g>
</svg>
